HIERARCHY
ROOT ui
{
	 OFFSET 0 0 0
	 CHANNELS 3 XPosition YPosition Z Position
	 EndSite
	 {
	 OFFSET 0 -1 0
	 }
}
ROOT li
{
	 OFFSET 0 0 0
	 CHANNELS 3 XPosition YPosition Z Position
	 EndSite
	 {
	 OFFSET 0 -1 0
	 }
}
ROOT ul
{
	 OFFSET 0 0 0
	 CHANNELS 3 XPosition YPosition Z Position
	 EndSite
	 {
	 OFFSET 0 -1 0
	 }
}
ROOT ll
{
	 OFFSET 0 0 0
	 CHANNELS 3 XPosition YPosition Z Position
	 EndSite
	 {
	 OFFSET 0 -1 0
	 }
}
ROOT tt
{
	 OFFSET 0 0 0
	 CHANNELS 3 XPosition YPosition Z Position
	 EndSite
	 {
	 OFFSET 0 -1 0
	 }
}
ROOT tb
{
	 OFFSET 0 0 0
	 CHANNELS 3 XPosition YPosition Z Position
	 EndSite
	 {
	 OFFSET 0 -1 0
	 }
}
ROOT td
{
	 OFFSET 0 0 0
	 CHANNELS 3 XPosition YPosition Z Position
	 EndSite
	 {
	 OFFSET 0 -1 0
	 }
}
ROOT v
{
	 OFFSET 0 0 0
	 CHANNELS 3 XPosition YPosition Z Position
	 EndSite
	 {
	 OFFSET 0 -1 0
	 }
}
ROOT bn
{
	 OFFSET 0 0 0
	 CHANNELS 3 XPosition YPosition Z Position
	 EndSite
	 {
	 OFFSET 0 -1 0
	 }
}
MOTION
Frames: 27
Frame Time: 0.002
0.058838294982910155	0.003147908926010132	0		0.5088286743164062	-2.2842421875	0		-0.9767429809570313	0.14132301330566407	0		-0.619635009765625	-2.43378369140625	0		1.7155491943359376	-0.41993252563476563	0		3.21530859375	-0.17452871704101564	0		4.50409130859375	-0.07086505889892578	0		5.95209814453125	0.405084716796875	0		-0.39234963989257815	5.81455810546875	0		
-0.05420959091186523	-0.002402756929397583	0		0.47879891967773436	-2.28404736328125	0		-0.9707883911132813	0.13640751647949217	0		-0.5866865234375	-2.440781982421875	0		1.7135498046875	-0.40982345581054686	0		3.24041015625	-0.13150247192382813	0		4.49514404296875	-0.043734474182128905	0		5.95206787109375	0.40518789672851563	0		-0.3923799133300781	5.8146611328125	0		
0.003752418041229248	-0.007496117115020752	0		0.48874923706054685	-2.291994140625	0		-0.9658259887695313	0.13147776794433594	0		-0.614733154296875	-2.447611083984375	0		1.720551513671875	-0.4017625732421875	0		3.220470458984375	-0.10436072540283203	0		4.47422314453125	-0.0105909423828125	0		5.95607080078125	0.4132529296875	0		-0.3923953857421875	5.81474609375	0		
-0.027252063751220704	-0.002335376024246216	0		0.48276351928710937	-2.278911376953125	0		-0.9608333740234375	0.13553044128417968	0		-0.5777685546875	-2.450657470703125	0		1.721573486328125	-0.387704345703125	0		3.21363134765625	-0.04528185272216797	0		4.453298828125	0.02052842712402344	0		5.960076171875	0.42129150390625	0		-0.3914040222167969	5.8138095703125	0		
0.06275525665283203	0.006435574054718018	0		0.4827349853515625	-2.27886572265625	0		-0.9568404541015625	0.1395692138671875	0		-0.5777977294921876	-2.450607666015625	0		1.7225950927734375	-0.37366656494140627	0		3.1996328125	-0.03820361328125	0		4.444359375	0.04658726501464844	0		5.96005810546875	0.42131634521484373	0		-0.39140188598632814	5.8138583984375	0		
-0.022310020446777344	-0.007272788047790527	0		0.5086851196289063	-2.28391796875	0		-0.9608746337890625	0.13561672973632813	0		-0.5838544921875	-2.457555908203125	0		1.722570556640625	-0.3736451416015625	0		3.2057392578125	0.003791546106338501	0		4.41143310546875	0.0776971435546875	0		5.9510927734375	0.4393435974121094	0		-0.39139462280273435	5.813890625	0		
-0.0013287839889526366	-0.0033231470584869386	0		0.4786394653320313	-2.283814453125	0		-0.9609047241210937	0.13563726806640625	0		-0.5879137573242188	-2.461525634765625	0		1.7145865478515625	-0.3576174621582031	0		3.180810302734375	0.0368619155883789	0		4.40449951171875	0.1087054443359375	0		5.9550400390625	0.43130682373046875	0		-0.3923846435546875	5.81491064453125	0		
-0.027371387481689453	-0.0022426860332489013	0		0.480581787109375	-2.281824462890625	0		-0.9569371337890625	0.13963252258300782	0		-0.5919913330078125	-2.465508544921875	0		1.5345914306640625	-0.34007443237304685	0		3.1558701171875	0.07091399383544922	0		4.38456396484375	0.14373397827148438	0		5.9510224609375	0.4392721862792969	0		-0.3913876037597656	5.81391064453125	0		
0.010569562911987304	-3.7191799283027647E-4	0		0.46448626708984375	-2.284790771484375	0		-0.94797607421875	0.14760186767578126	0		-0.5601570434570312	-2.49061376953125	0		1.5385355224609376	-0.3361127624511719	0		3.1648427734375	0.08284502410888672	0		4.37856982421875	0.165701904296875	0		5.96895849609375	0.43814935302734376	0		-0.36034283447265625	5.831806640625	0		
0.00950793743133545	0.007610755920410156	0		0.5123934936523438	-2.278965576171875	0		-0.9430516967773438	0.15057626342773436	0		-0.5752579956054688	-2.486581298828125	0		1.54447021484375	-0.32816839599609376	0		3.152931640625	0.13882757568359375	0		4.359595703125	0.20069540405273437	0		5.96792626953125	0.45406753540039063	0		-0.38943148803710936	5.81088037109375	0		
0.002376075029373169	6.06332004070282E-4	0		0.48225494384765627	-2.278904541015625	0		-0.9521817626953125	0.14359002685546876	0		-0.509443359375	-2.500806396484375	0		1.539374755859375	-0.3221983642578125	0		3.130832763671875	0.14183058166503906	0		4.35851513671875	0.2086201171875	0		5.96380029296875	0.44697903442382814	0		-0.39245626831054686	5.81486865234375	0		
-0.027769847869873045	-0.002329559087753296	0		0.5060630493164062	-2.286016845703125	0		-0.9483037719726563	0.14756123352050782	0		-0.5916253662109375	-2.503571533203125	0		1.5332523193359375	-0.3162319946289063	0		3.106798583984375	0.1738302001953125	0		4.3304716796875	0.23661740112304688	0		5.963669921875	0.4468623046875	0		-0.3925083923339844	5.81484423828125	0		
-0.027934850692749022	-0.0023612558841705324	0		0.45288198852539063	-2.27889013671875	0		-0.9364979248046875	0.1375072021484375	0		-0.5159054565429687	-2.526833740234375	0		1.53308203125	-0.31628994750976563	0		3.137705810546875	0.1956478271484375	0		4.31640185546875	0.26455978393554686	0		5.9635126953125	0.4467297973632812	0		-0.3915787048339844	5.8138154296875	0		
0.0018834840059280395	5.116680264472961E-4	0		0.481646728515625	-2.2790234375	0		-1.0106731567382812	0.1417279815673828	0		-0.583167236328125	-2.53364306640625	0		1.51791357421875	-0.30730438232421875	0		3.108642578125	0.23464662170410155	0		4.30730126953125	0.2904761962890625	0		5.9713779296875	0.46155648803710936	0		-0.3916571044921875	5.81379052734375	0		
0.004682458877563476	0.003471734046936035	0		0.4813856201171875	-2.279064453125	0		-0.9278714599609375	0.14445465087890624	0		-0.5174790649414063	-2.54787158203125	0		1.5366800537109375	-0.3124290161132813	0		3.108437255859375	0.23454750061035157	0		4.29816455078125	0.31038363647460937	0		5.97117724609375	0.46139395141601564	0		-0.39173895263671876	5.81376904296875	0		
0.004460371017456054	0.0034454569816589355	0		0.47909652709960937	-2.28209619140625	0		-0.9991315307617188	0.1316806945800781	0		-0.5647908325195312	-2.555733154296875	0		1.52548876953125	-0.30045840454101563	0		3.146340087890625	0.2713205871582031	0		4.2880185546875	0.33028662109375	0		5.970966796875	0.4612178039550781	0		-0.3918150939941406	5.8137529296875	0		
0.001224629044532776	4.345960021018982E-4	0		0.4698320007324219	-2.27410107421875	0		-0.9203543090820312	0.13143157958984375	0		-0.5381315307617187	-2.568825439453125	0		1.5152152099609375	-0.31248944091796876	0		3.097173828125	0.287370361328125	0		4.2968515625	0.34412124633789065	0		5.965783203125	0.47004473876953123	0		-0.39287359619140627	5.81474658203125	0		
-0.003011625051498413	-0.0035661261081695555	0		0.4765042724609375	-2.284152587890625	0		-1.0195498657226563	0.13877171325683593	0		-0.573488037109375	-2.584707275390625	0		1.509001953125	-0.3065313720703125	0		3.06600927734375	0.302360595703125	0		4.2697060546875	0.3630667724609375	0		5.970544921875	0.4608264770507812	0		-0.391916748046875	5.81374169921875	0		
0.0037977468967437746	0.0034044148921966552	0		0.4802275390625	-2.279188720703125	0		-1.0087620849609376	0.13776446533203124	0		-0.5308451538085938	-2.600836181640625	0		1.5147576904296876	-0.31261013793945314	0		3.095802490234375	0.3011478881835937	0		4.26060009765625	0.3899483642578125	0		5.9753740234375	0.46859542846679686	0		-0.3889410705566406	5.8097392578125	0		
-0.019386058807373048	0.007483458995819091	0		0.4819496765136719	-2.2772119140625	0		-1.044940673828125	0.1419258270263672	0		-0.5381688232421875	-2.608790283203125	0		1.5145482177734375	-0.3126659851074219	0		3.082760986328125	0.34407501220703124	0		4.251443359375	0.3958253784179688	0		5.9831943359375	0.46834228515625	0		-0.3899132080078125	5.810759765625	0		
0.05642580795288086	0.003236608028411865	0		0.4776636962890625	-2.282207763671875	0		-1.0091229858398438	0.1378574676513672	0		-0.53952294921875	-2.62975390625	0		1.50536767578125	-0.3106878356933594	0		3.05858056640625	0.33803903198242186	0		4.26038671875	0.42363690185546876	0		5.97806982421875	0.4771212158203125	0		-0.3918360595703125	5.81379296875	0		
-0.02974009895324707	-0.002451697111129761	0		0.4664362487792969	-2.276173095703125	0		-1.0402349853515624	0.14602749633789064	0		-0.551827880859375	-2.641670166015625	0		1.5541834716796874	-0.3179057312011719	0		3.0815185546875	0.35784088134765624	0		4.2423115234375	0.4365350341796875	0		5.98291796875	0.46885440063476563	0		-0.39072494506835936	5.8128251953125	0		
-0.0038580551147460937	-0.0035166890621185303	0		0.47518502807617186	-2.284202392578125	0		-1.028377197265625	0.13605982971191405	0		-0.5501349487304688	-2.660626220703125	0		1.495036865234375	-0.3227499389648438	0		3.08142138671875	0.35771755981445313	0		4.2432705078125	0.44936212158203126	0		5.97785400390625	0.4766094665527344	0		-0.39056063842773436	5.8128681640625	0		
-0.026922962188720704	5.94044029712677E-4	0		0.4520149230957031	-2.2771162109375	0		-1.0194210205078125	0.14410926818847655	0		-0.556370361328125	-2.6665478515625	0		1.4999237060546875	-0.3278144226074219	0		3.096466796875	0.387536865234375	0		4.23431787109375	0.476217529296875	0		5.98679931640625	0.47630307006835937	0		-0.38935150146484376	5.81091357421875	0		
0.05604902267456055	0.003330049991607666	0		0.5068367919921875	-2.282304931640625	0		-1.0134696044921876	0.139175048828125	0		-0.52558349609375	-2.6755966796875	0		1.5058463134765625	-0.333883056640625	0		3.056420654296875	0.37954840087890623	0		4.229384765625	0.4960530395507812	0		5.99981494140625	0.4839697570800781	0		-0.3890797424316406	5.81096728515625	0		
-0.022938491821289063	0.004650872230529785	0		0.47471115112304685	-2.2841806640625	0		-1.0184683227539062	0.13528518676757811	0		-0.4898116760253906	-2.6996630859375	0		1.6677838134765626	-0.3485221862792969	0		3.101504150390625	0.3942500305175781	0		4.22142529296875	0.49489422607421873	0		5.990853515625	0.4847052001953125	0		-0.38874908447265627	5.81102490234375	0		
0.049088985443115234	-0.0035779800415039064	0		0.5006192626953125	-2.289267578125	0		-1.0184032592773438	0.13538006591796875	0		-0.487975341796875	-2.717605712890625	0		1.6188326416015626	-0.3453992004394531	0		3.0586103515625	0.401268798828125	0		4.240626953125	0.5236304321289063	0		5.9909384765625	0.4843995361328125	0		-0.353337646484375	5.81695361328125	0		
